<svg width="1024" height="1024" viewBox="0 0 1024 1024" fill="none" xmlns="http://www.w3.org/2000/svg">
<path d="M972.558 26.3201C1003.81 50.0227 1024 87.5559 1024 129.806V894.2C1024 923.639 1014.2 950.786 997.68 972.562C985.283 902.081 923.761 848.529 849.727 848.529H848.525V174.275C848.525 100.241 902.077 38.7165 972.558 26.3201Z" fill="url(#paint0_linear_39_317)"/>
<path d="M972.558 26.3201C1003.81 50.0227 1024 87.5559 1024 129.806V894.2C1024 923.639 1014.2 950.786 997.68 972.562C985.283 902.081 923.761 848.529 849.727 848.529H848.525V174.275C848.525 100.241 902.077 38.7165 972.558 26.3201Z" fill="url(#paint1_radial_39_317)"/>
<path d="M849.727 848.53C923.762 848.53 985.284 902.082 997.681 972.563C973.978 1003.82 936.447 1024 894.197 1024H129.803C100.363 1024 73.2153 1014.2 51.4387 997.685C121.92 985.289 175.474 923.767 175.474 849.732V848.53H849.727Z" fill="url(#paint2_linear_39_317)"/>
<path d="M849.727 848.53C923.762 848.53 985.284 902.082 997.681 972.563C973.978 1003.82 936.447 1024 894.197 1024H129.803C100.363 1024 73.2153 1014.2 51.4387 997.685C121.92 985.289 175.474 923.767 175.474 849.732V848.53H849.727Z" fill="url(#paint3_radial_39_317)"/>
<path d="M26.3169 51.4399C38.7124 121.922 100.237 175.475 174.272 175.475H175.474V849.729C175.474 923.764 121.921 985.286 51.439 997.682C20.1868 973.979 0 936.447 0 894.198V129.804C0 100.365 9.80127 73.2163 26.3169 51.4399Z" fill="url(#paint4_linear_39_317)"/>
<path d="M26.3169 51.4399C38.7124 121.922 100.237 175.475 174.272 175.475H175.474V849.729C175.474 923.764 121.921 985.286 51.439 997.682C20.1868 973.979 0 936.447 0 894.198V129.804C0 100.365 9.80127 73.2163 26.3169 51.4399Z" fill="url(#paint5_radial_39_317)"/>
<path d="M894.198 0C923.636 0 950.783 9.80194 972.559 26.3169C902.079 38.7133 848.526 100.238 848.526 174.272V175.474H174.273C100.238 175.474 38.713 121.921 26.3175 51.439C50.0202 20.1862 87.554 0 129.803 0H894.198Z" fill="url(#paint6_linear_39_317)"/>
<path d="M894.198 0C923.636 0 950.783 9.80194 972.559 26.3169C902.079 38.7133 848.526 100.238 848.526 174.272V175.474H174.273C100.238 175.474 38.713 121.921 26.3175 51.439C50.0202 20.1862 87.554 0 129.803 0H894.198Z" fill="url(#paint7_radial_39_317)"/>
<defs>
<linearGradient id="paint0_linear_39_317" x1="998.76" y1="24.0407" x2="998.76" y2="999.966" gradientUnits="userSpaceOnUse">
<stop stop-color="#E83293"/>
<stop offset="0.46" stop-color="#BE3493"/>
<stop offset="1" stop-color="#8A3793"/>
</linearGradient>
<radialGradient id="paint1_radial_39_317" cx="0" cy="0" r="1" gradientUnits="userSpaceOnUse" gradientTransform="translate(848.525 992.754) rotate(-90) scale(240.376 240.385)">
<stop offset="0.1"/>
<stop offset="0.875" stop-opacity="0"/>
</radialGradient>
<linearGradient id="paint2_linear_39_317" x1="24.0373" y1="998.765" x2="999.962" y2="998.765" gradientUnits="userSpaceOnUse">
<stop offset="0.43" stop-color="#179BD7"/>
<stop offset="0.78" stop-color="#76C2E9"/>
<stop offset="1" stop-color="#ADD9F4"/>
</linearGradient>
<radialGradient id="paint3_radial_39_317" cx="0" cy="0" r="1" gradientUnits="userSpaceOnUse" gradientTransform="translate(31.2486 848.53) scale(240.376 240.385)">
<stop offset="0.1"/>
<stop offset="0.88" stop-opacity="0"/>
</radialGradient>
<linearGradient id="paint4_linear_39_317" x1="25.2394" y1="24.0385" x2="25.2394" y2="999.963" gradientUnits="userSpaceOnUse">
<stop stop-color="#71C05F"/>
<stop offset="0.61" stop-color="#9CCE78"/>
<stop offset="1" stop-color="#C7DC91"/>
</linearGradient>
<radialGradient id="paint5_radial_39_317" cx="0" cy="0" r="1" gradientUnits="userSpaceOnUse" gradientTransform="translate(175.474 31.2498) rotate(90) scale(240.376 240.364)">
<stop offset="0.1"/>
<stop offset="0.88" stop-opacity="0"/>
</radialGradient>
<linearGradient id="paint6_linear_39_317" x1="24.0382" y1="25.2394" x2="999.963" y2="25.2394" gradientUnits="userSpaceOnUse">
<stop stop-color="#F3A453"/>
<stop offset="0.5" stop-color="#E8AC3E"/>
<stop offset="1" stop-color="#CE4F76"/>
</linearGradient>
<radialGradient id="paint7_radial_39_317" cx="0" cy="0" r="1" gradientUnits="userSpaceOnUse" gradientTransform="translate(992.752 175.474) rotate(180) scale(240.376 240.376)">
<stop offset="0.100962"/>
<stop offset="0.879808" stop-opacity="0"/>
</radialGradient>
</defs>
</svg>
